<?xml version="1.0" encoding="UTF-8" standalone="no"?>
<!-- Created with Inkscape (http://www.inkscape.org/) -->

<svg
   xmlns:dc="http://purl.org/dc/elements/1.1/"
   xmlns:cc="http://creativecommons.org/ns#"
   xmlns:rdf="http://www.w3.org/1999/02/22-rdf-syntax-ns#"
   xmlns:svg="http://www.w3.org/2000/svg"
   xmlns="http://www.w3.org/2000/svg"
   xmlns:sodipodi="http://sodipodi.sourceforge.net/DTD/sodipodi-0.dtd"
   xmlns:inkscape="http://www.inkscape.org/namespaces/inkscape"
   width="400"
   height="300"
   viewBox="0 -600 800 600"
   version="1.1"
   id="svg8"
   inkscape:version="0.92.3 (2405546, 2018-03-11)"
   sodipodi:docname="logo-white.svg"
   inkscape:export-filename="C:\Users\frrol\OneDrive\Pictures\logo.png"
   inkscape:export-xdpi="96"
   inkscape:export-ydpi="96">
  <defs
     id="defs2" />
  <sodipodi:namedview
     id="base"
     pagecolor="#ffffff"
     bordercolor="#666666"
     borderopacity="1.0"
     inkscape:pageopacity="0.0"
     inkscape:pageshadow="2"
     inkscape:zoom="1.4"
     inkscape:cx="178.83487"
     inkscape:cy="141.61665"
     inkscape:document-units="px"
     inkscape:current-layer="layer1"
     showgrid="false"
     units="px"
     inkscape:window-width="3840"
     inkscape:window-height="2035"
     inkscape:window-x="-13"
     inkscape:window-y="-13"
     inkscape:window-maximized="1"
     viewbox-x="0"
     viewbox-y="-600" />
  <metadata
     id="metadata5">
    <rdf:RDF>
      <cc:Work
         rdf:about="">
        <dc:format>image/svg+xml</dc:format>
        <dc:type
           rdf:resource="http://purl.org/dc/dcmitype/StillImage" />
        <dc:title></dc:title>
      </cc:Work>
    </rdf:RDF>
  </metadata>
  <g
     inkscape:label="Layer 1"
     inkscape:groupmode="layer"
     id="layer1"
     transform="translate(0,-885.33332)">
    <path
       id="path3816"
       style="fill:#ffffff;fill-opacity:0.25098039"
       d="m 464.80715,616.14911 c -310.09012,201.23179 -155.04506,100.6159 0,0 z M 85.136545,787.42346 c 0,-1.91201 4.924298,-19.54284 10.03152,-35.91661 7.343045,-23.5418 9.968475,-33.71461 9.968475,-38.62502 0,-5.62026 -2.45111,-12.02329 -9.522275,-24.87498 -6.273115,-11.40125 -10.525799,-22.76348 -10.425761,-27.85534 0.03558,-1.81083 0.902621,-0.37428 2.75,4.55631 3.371443,8.99826 7.718541,15.19511 13.342276,19.01962 6.15346,4.18475 9.93749,5.27784 21.57337,6.23188 16.94127,1.38904 21.18857,4.55862 27.26923,20.34986 5.51747,14.32865 10.29989,21.69767 14.08156,21.69767 3.31068,0 8.19941,-8.06871 13.45715,-22.21064 5.82967,-15.68026 9.43374,-18.44367 25.92163,-19.87534 5.62536,-0.48846 12.15061,-1.56647 14.50055,-2.39558 9.70757,-3.42503 18.32765,-12.82596 22.06869,-24.06779 1.20404,-3.61812 2.4185,-6.34906 2.69881,-6.06875 1.40868,1.40868 -3.30433,16.43177 -7.94373,25.32129 -2.8121,5.38825 -6.48113,12.44497 -8.1534,15.68162 -4.15911,8.04988 -4.65248,15.99001 -1.57063,25.277 1.24808,3.761 6.24798,14.69676 11.11088,24.30167 4.86291,9.60491 8.84165,17.59241 8.84165,17.75 0,0.15759 -1.36412,0.28652 -3.03138,0.28652 -4.23664,0 -4.57596,1.83901 -2.08844,11.31864 1.18076,4.49975 2.14076,8.74386 2.13333,9.43136 -0.0288,2.66637 -1.77374,1.03199 -4.02121,-3.76643 -3.11599,-6.65278 -10.2114,-13.70847 -16.9923,-16.89719 -7.99306,-3.75874 -19.22091,-3.68076 -27.12923,0.18842 -6.49096,3.17573 -13.86151,10.59434 -17.05377,17.16497 -2.07662,4.27431 -3.817,5.88111 -3.817,3.52404 0,-0.5699 0.95244,-4.8337 2.11654,-9.4751 1.1641,-4.64141 1.85322,-9.12512 1.53139,-9.96381 -0.35108,-0.9149 -1.83113,-1.5249 -3.69988,-1.5249 -1.71309,0 -2.96472,-0.3375 -2.78138,-0.75 0.18333,-0.4125 4.19641,-8.41447 8.91796,-17.78215 10.12345,-20.08523 12.91537,-27.77661 12.91537,-35.58023 0,-6.95133 -0.65691,-8.88762 -3.01522,-8.88762 -1.1919,0 -3.05209,2.28347 -5.4988,6.75 -4.12748,7.53481 -11.9836,18.50386 -15.8442,22.1223 -1.85536,1.73899 -3.19922,2.20461 -5.03389,1.74413 -3.02384,-0.75893 -12.01692,-11.95486 -18.36738,-22.86643 -6.41737,-11.02654 -9.24051,-10.58737 -9.24051,1.43744 0,7.03511 1.21219,12.12879 8.52261,35.81256 6.17005,19.98927 10.47119,35.69528 10.47487,38.25 0.006,4.00793 -1.76042,1.20866 -4.41663,-7 -9.75744,-30.15404 -23.37873,-41.92751 -38.79834,-33.53511 -8.35872,4.54938 -13.546515,12.99094 -21.223722,34.53511 -1.518931,4.2625 -3.166038,7.75 -3.660238,7.75 -0.4942,0 -0.898545,-0.26252 -0.898545,-0.58339 z M 254.46188,783.9458 c 0.32153,-2.50858 2.91478,-12.18358 5.76278,-21.5 11.02331,-36.05968 12.13053,-40.14393 12.64401,-46.64063 0.67373,-8.52409 -1.01537,-13.85396 -8.80626,-27.78764 -6.421,-11.48369 -9.4708,-19.333 -10.38286,-26.72249 l -0.591,-4.78819 2.6434,6.95902 c 6.14697,16.18256 15.53824,24.48144 29.57019,26.13062 15.22464,1.78936 28.61705,-7.92792 35.44219,-25.71618 l 2.44542,-6.37346 -0.61106,5 c -0.8107,6.63344 -4.48776,15.659 -11.56277,28.3815 -9.80743,17.63602 -9.92266,22.1594 -1.26839,49.79148 5.39703,17.23213 11.84118,39.34569 12.87909,44.19551 0.54243,2.53466 0.40257,3.26239 -0.56501,2.93987 -0.70724,-0.23575 -2.73472,-4.75017 -4.50552,-10.03204 -9.354,-27.90078 -22.39493,-39.52567 -36.91955,-32.91066 -8.13917,3.70686 -14.66255,13.3041 -20.68544,30.43255 -4.45923,12.68156 -6.39838,15.73403 -5.48922,8.64074 z m 213.67466,2.43134 c 0,-0.89634 0.96124,-5.1372 2.1361,-9.42414 2.48431,-9.06505 2.12261,-10.94615 -2.10472,-10.94615 -1.66726,0 -3.03138,-0.1598 -3.03138,-0.35511 0,-0.19531 3.98001,-8.18281 8.84446,-17.75 14.77503,-29.05887 16.15406,-36.78934 9.01582,-50.54034 -1.95703,-3.77 -5.63301,-10.84827 -8.16885,-15.72949 -2.60552,-5.01537 -5.3294,-12.10581 -6.26346,-16.30422 -1.7847,-8.02187 -1.30847,-11.30447 0.60766,-4.18853 3.0288,11.24813 10.64445,21.09631 19.76431,25.55824 8.70561,4.25926 16.38169,3.85171 32.20006,-1.7096 12.27336,-4.31498 12.7357,-4.39519 25.5,-4.42422 12.8401,-0.0292 13.15375,0.0246 25.5,4.37454 10.26291,3.6159 13.75277,4.40049 19.5,4.38394 11.49508,-0.0331 19.59963,-4.76029 26.52106,-15.46909 2.02045,-3.12602 4.25398,-7.75682 4.96341,-10.29066 1.41468,-5.05273 3.48338,-7.47421 2.46833,-2.88925 -2.1021,9.49508 -4.41031,15.35033 -11.01253,27.93556 -4.06879,7.75598 -7.88951,16.39454 -8.49049,19.19679 -1.644,7.66573 0.6112,14.76768 11.81317,37.20144 5.35538,10.725 9.88705,19.8375 10.07038,20.25 0.18334,0.4125 -1.27916,0.75 -3.25,0.75 -4.34132,0 -4.47096,0.98256 -1.58333,12 1.08115,4.125 1.97344,8.0625 1.98286,8.75 0.0353,2.57489 -1.65681,1.10081 -3.79986,-3.31023 -3.19226,-6.57063 -10.56281,-13.98924 -17.05377,-17.16497 -7.99727,-3.9127 -19.12012,-3.95081 -27.34957,-0.0937 -6.91966,3.24321 -13.9498,10.22642 -17.00952,16.89597 -2.27106,4.95045 -3.77014,6.27831 -3.77014,3.33954 0,-0.87086 0.92499,-5.20621 2.05553,-9.6341 1.13054,-4.42789 1.81966,-8.66537 1.53138,-9.41661 -0.28828,-0.75125 -1.88826,-1.3659 -3.55553,-1.3659 -1.66726,0 -3.03138,-0.14534 -3.03138,-0.32297 0,-0.17764 3.95708,-8.16514 8.79351,-17.75 10.36053,-20.53256 13.20649,-28.56338 13.20649,-37.26653 0,-19.10753 -9.39075,-28.18517 -29.00359,-28.03653 -9.44738,0.0716 -16.27827,2.3591 -21.24353,7.11397 -4.03163,3.86081 -6.82302,12.22889 -6.89083,20.65754 -0.0734,9.11533 2.67439,16.85918 13.49641,38.03645 4.47785,8.76256 8.29154,16.30006 8.47487,16.75 0.18334,0.44994 -1.06829,0.81807 -2.78138,0.81807 -1.86875,0 -3.3488,0.61 -3.69988,1.5249 -0.32183,0.83869 0.36729,5.3224 1.53139,9.96381 1.1641,4.6414 2.11654,8.9052 2.11654,9.4751 0,2.35707 -1.74038,0.75027 -3.817,-3.52404 -3.19226,-6.57063 -10.56281,-13.98924 -17.05377,-17.16497 -7.98233,-3.90539 -19.12198,-3.95011 -27.31477,-0.10964 -6.81772,3.1959 -13.61302,9.99964 -16.81492,16.83582 -2.35053,5.01849 -3.99954,6.40765 -3.99954,3.36931 z m 168,1.06093 c 0,-1.89623 5.73433,-22.56571 10.52325,-37.93122 3.0855,-9.9 6.51981,-21.809 7.63181,-26.46445 3.18697,-13.34255 2.29111,-16.88872 -9.86149,-39.03555 -4.76711,-8.68754 -7.17857,-15.41699 -7.84886,-21.90311 l -0.47505,-4.59689 1.88672,5.05127 c 5.71575,15.30261 12.49695,22.46062 24.61584,25.98368 17.80832,5.17702 35.94464,-6.80074 41.49215,-27.40264 1.92369,-7.14402 2.38899,-3.81819 0.59436,4.24832 -1.01448,4.55991 -3.60233,11.13246 -6.61642,16.80422 -11.66536,21.95128 -11.44786,21.34365 -11.38801,31.81515 0.0507,8.87554 0.49964,10.91326 6.82945,31 7.31726,23.2203 11.60972,38.46637 11.61373,41.25 0.006,3.99495 -1.69253,1.17525 -4.81902,-8.00114 -8.62712,-25.32092 -18.39687,-36.25103 -31.2948,-35.0117 -10.67226,1.02547 -18.75133,10.69863 -26.40578,31.61592 -2.64603,7.2308 -5.18602,13.14692 -5.64442,13.14692 -0.4584,0 -0.83346,-0.25595 -0.83346,-0.56878 z M 113.05962,668.08377 c -4.01608,-4.01607 -4.11865,-10.21957 -0.23599,-14.2722 5.70729,-5.95712 17.31291,-1.88725 17.31291,6.0713 0,9.75788 -10.4848,14.79302 -17.07692,8.2009 z m 88.22716,0.39605 c -3.76647,-3.16928 -4.71661,-7.18169 -2.7916,-11.78889 1.73976,-4.16383 4.18468,-5.68408 9.14136,-5.68408 4.72974,0 7.114,1.35288 9.07815,5.15113 4.99013,9.64983 -7.11428,19.31729 -15.42791,12.32184 z m 81.95983,1.13152 c -5.70456,-3.16179 -6.80636,-11.06204 -2.18699,-15.68141 2.36236,-2.36237 3.78398,-2.92308 7.4111,-2.92308 3.78394,0 4.89418,0.48268 7.07693,3.07673 7.47357,8.88184 -2.21839,21.11614 -12.30104,15.52776 z m 213.00066,-1.16477 c -3.82859,-3.22155 -4.88381,-8.04407 -2.68888,-12.28859 1.96415,-3.79825 4.34841,-5.15113 9.07815,-5.15113 4.95668,0 7.4016,1.52025 9.14136,5.68408 1.92501,4.6072 0.97487,8.61961 -2.7916,11.78889 -3.98158,3.35028 -8.73267,3.33788 -12.73903,-0.0332 z m 87.16135,-0.96764 c -3.2122,-3.2122 -3.47727,-3.90564 -2.96184,-7.74844 0.74451,-5.55076 4.31298,-8.72364 9.81127,-8.72364 5.32877,0 7.74667,1.44027 9.5124,5.66625 2.80783,6.72009 -2.16858,14.33375 -9.36877,14.33375 -2.63205,0 -4.31332,-0.84818 -6.99306,-3.52792 z m 80.651,0.60484 c -4.01823,-4.01823 -4.14849,-10.57878 -0.28672,-14.44056 5.42068,-5.42067 15.5527,-2.47594 16.94087,4.92364 1.88299,10.03718 -9.58218,16.58889 -16.65415,9.51692 z M 83.841867,786.82874 c -0.816425,-1.32101 2.482334,-14.00739 9.609223,-36.95522 10.44164,-33.62096 11.22518,-38.00905 8.31665,-46.57593 -0.85108,-2.50681 -4.23739,-9.38504 -7.52512,-15.28495 -6.268921,-11.24973 -10.92745,-23.94482 -10.92745,-29.77872 0,-5.02456 1.586546,-4.22091 3.55672,1.80162 2.625247,8.02499 5.206335,12.58237 10.0723,17.78448 6.06585,6.48489 12.10377,8.89864 24.80203,9.915 17.90647,1.43322 22.02331,4.60711 29.08645,22.42423 4.48394,11.31095 8.55003,18.33124 11.20806,19.35122 3.55221,1.36311 9.00474,-7.66955 15.74314,-26.08006 2.20065,-6.01257 6.88833,-11.47827 11.49528,-13.40318 1.92238,-0.80322 8.18806,-1.86789 13.92374,-2.36593 20.63397,-1.79168 27.61785,-7.50504 37.01099,-30.27789 0.85068,-2.06239 1.50683,-2.59233 2.26768,-1.83148 2.05348,2.05348 -2.00133,15.93263 -7.95172,27.21784 -11.38589,21.5939 -10.71467,19.80753 -10.71467,28.51577 0,7.33316 0.38948,8.89117 4.67251,18.69125 2.56988,5.88018 7.41942,15.76176 10.77677,21.95905 3.35734,6.19729 5.88133,11.84873 5.60887,12.55875 -0.27246,0.71002 -1.64863,1.29095 -3.05815,1.29095 -3.619,0 -3.8755,1.67029 -1.5469,10.07331 1.12579,4.06257 2.0469,8.40804 2.0469,9.65659 0,3.95215 -2.84779,2.50399 -5.54571,-2.82011 -3.64755,-7.19809 -9.74285,-13.41367 -16.31278,-16.63471 -4.73317,-2.32052 -6.92959,-2.76585 -13.64151,-2.76585 -6.73645,0 -8.90256,0.44249 -13.71444,2.80154 -6.38295,3.12927 -12.71015,9.6619 -16.40656,16.93923 -2.33758,4.60212 -5.379,6.3926 -5.379,3.16661 0,-0.87086 0.92499,-5.20621 2.05553,-9.6341 2.31367,-9.06174 2.07985,-10.78251 -1.46513,-10.78251 -1.3598,0 -2.74418,-0.43981 -3.0764,-0.97735 -0.33222,-0.53754 2.74561,-7.40004 6.83963,-15.25 4.09401,-7.84996 9.08494,-18.43012 11.09096,-23.51147 3.13415,-7.93899 3.60566,-10.17885 3.35135,-15.9203 -0.34053,-7.68824 -1.89601,-9.15627 -4.54483,-4.28935 -3.9203,7.2031 -13.24923,20.68208 -16.748,24.19847 -2.17904,2.19002 -4.69922,3.75 -6.0582,3.75 -3.14616,0 -11.36788,-9.40999 -18.56817,-21.25181 -3.0928,-5.08651 -6.2428,-9.24819 -7,-9.24819 -1.89455,0 -2.39252,10.35999 -0.84117,17.5 0.65726,3.025 4.0682,14.87526 7.57986,26.33392 10.36418,33.81862 11.94738,41.12612 8.7722,40.4894 -1.048,-0.21015 -2.90529,-3.99857 -5.30618,-10.82332 -9.87412,-28.06811 -21.48516,-38.55427 -35.58145,-32.13434 -8.2236,3.74531 -15.26865,14.71451 -21.441344,33.38434 -3.000485,9.07522 -4.833018,11.54214 -6.531959,8.7932 z m 168.473303,-1.90425 c 0,-3.16023 4.88713,-20.61835 13.05585,-46.63895 4.74558,-15.11655 5.3428,-17.99712 5.3905,-26 l 0.0537,-9 -7.6357,-14.5 c -8.09429,-15.37085 -10.8452,-22.43264 -11.16658,-28.66543 -0.29101,-5.64386 1.36644,-5.5553 3.31495,0.17712 4.1356,12.16673 10.19784,19.97644 18.75732,24.1642 4.75084,2.32438 6.98854,2.79167 13.22424,2.7616 15.05275,-0.0726 25.78605,-8.67027 31.60183,-25.31403 3.00729,-8.60633 4.95284,-9.45084 4.04863,-1.7574 -0.90302,7.68325 -4.61624,17.12902 -11.66011,29.66124 -9.78419,17.40768 -9.96792,21.7442 -2.01136,47.4727 7.83172,25.32478 13.03896,43.66307 13.2813,46.77259 0.17344,2.22546 -0.22768,3.24832 -1.36682,3.48543 -1.23853,0.25779 -2.4669,-2.13839 -5.29878,-10.33637 -6.52502,-18.8892 -12.98317,-28.87913 -21.03311,-32.53552 -14.19207,-6.44623 -26.19302,4.21195 -35.59672,31.61387 -3.81768,11.12454 -3.9994,11.5 -5.56608,11.5 -0.86614,0 -1.39306,-1.08222 -1.39306,-2.86105 z m 214,0.59095 c 0,-1.24855 0.92111,-5.59402 2.0469,-9.65659 2.3286,-8.40302 2.0721,-10.07331 -1.5469,-10.07331 -1.40952,0 -2.78569,-0.58093 -3.05815,-1.29095 -0.27246,-0.71002 2.25153,-6.36146 5.60887,-12.55875 9.76938,-18.03321 15.27369,-31.63031 15.76501,-38.94375 0.51163,-7.61577 -0.83169,-11.51718 -9.02336,-26.20655 -3.22048,-5.775 -6.7461,-13.425 -7.83472,-17 -3.87599,-12.72878 -2.32606,-19.45909 1.81,-7.85958 5.73608,16.0867 16.90275,25.29395 30.73235,25.33972 4.54004,0.015 9.16325,-1.06942 19,-4.45677 12.79471,-4.40594 13.20529,-4.47664 26,-4.47664 12.79471,0 13.20529,0.0707 26,4.47664 19.68367,6.77819 28.88445,5.7682 39.36511,-4.32121 4.20794,-4.05087 11.13489,-16.36926 11.13489,-19.8015 0,-2.38668 2.8021,-4.57996 3.50641,-2.74456 1.02358,2.66741 -3.56904,17.43583 -8.19231,26.3439 -12.23629,23.57676 -11.69087,22.22922 -11.6612,28.81071 0.0335,7.43509 3.67078,16.82025 14.92898,38.52097 4.08936,7.88242 7.17979,14.74492 6.86764,15.25 -0.31216,0.50508 -1.891,0.91832 -3.50854,0.91832 -3.56326,0 -3.62743,0.75015 -0.94098,11 1.08115,4.125 1.97344,8.2875 1.98286,9.25 0.0358,3.65106 -2.86166,1.50649 -6.59928,-4.88455 -7.14978,-12.22557 -16.02901,-17.69791 -28.88358,-17.80118 -6.79618,-0.0546 -8.84892,0.35262 -13.64151,2.7062 -6.57192,3.22738 -12.66673,9.44419 -16.31278,16.63932 -2.63377,5.1975 -5.54571,6.77632 -5.54571,3.00682 0,-1.14586 0.91454,-5.6653 2.03232,-10.04319 1.11778,-4.3779 1.76622,-8.39038 1.44098,-8.91662 -0.32523,-0.52624 -1.7039,-0.9568 -3.0637,-0.9568 -1.3598,0 -2.69628,-0.58349 -2.96994,-1.29665 -0.27367,-0.71316 1.82121,-5.55066 4.65529,-10.75 11.78651,-21.62333 16.90505,-35.02919 16.90505,-44.27564 0,-12.70433 -4.06944,-20.43294 -12.90948,-24.51748 -4.74669,-2.19321 -6.96829,-2.57791 -14.71848,-2.54872 -7.80109,0.0294 -9.91476,0.41932 -14.54056,2.68251 -8.73789,4.27505 -12.78089,11.64552 -13.0036,23.70583 -0.16578,8.97722 2.54593,16.69 13.31387,37.86795 4.85687,9.5523 8.58532,17.7648 8.28544,18.25 -0.29987,0.48521 -1.65779,0.8822 -3.01759,0.8822 -3.54498,0 -3.7788,1.72077 -1.46513,10.78251 1.13054,4.42789 2.05553,8.76324 2.05553,9.6341 0,3.31427 -2.93092,1.3675 -5.92299,-3.93415 -4.50684,-7.98569 -9.47177,-13.03845 -15.91647,-16.19806 -4.75371,-2.33058 -6.94216,-2.77517 -13.66054,-2.77517 -6.71192,0 -8.90834,0.44533 -13.64151,2.76585 -6.56993,3.22104 -12.66523,9.43662 -16.31278,16.63471 -2.69792,5.3241 -5.54571,6.77226 -5.54571,2.82011 z m 168,0.87958 c 0,-2.48831 4.74868,-19.68888 10.89329,-39.45742 7.67345,-24.68719 9.51586,-32.93796 8.64777,-38.72684 -0.38936,-2.59643 -4.1577,-11.36997 -8.8972,-20.71466 -4.52197,-8.91581 -8.76673,-18.60739 -9.43281,-21.53685 -2.4857,-10.93231 -0.73726,-15.34778 2.34567,-5.92371 6.57242,20.0909 21.47573,30.46537 38.54234,26.83002 11.25329,-2.39706 19.76784,-10.75433 24.83323,-24.37451 2.86622,-7.70687 4.71888,-8.76165 4.27437,-2.43351 -0.45,6.40621 -4.47921,16.86838 -11.01171,28.59279 -3.2591,5.84937 -6.49063,12.38179 -7.18118,14.51651 -2.39941,7.41737 -0.8352,17.31139 6.38899,40.4119 11.36,36.32547 13.25648,44.6866 9.98695,44.03012 -1.04401,-0.20962 -2.95506,-4.09906 -5.43427,-11.06002 -8.36286,-23.48064 -17.03135,-33.7633 -28.46316,-33.7633 -10.80651,0 -19.88857,10.76181 -27.62158,32.73024 -1.69785,4.82337 -3.50417,9.55726 -4.01403,10.51976 -1.10336,2.08285 -3.85667,2.33948 -3.85667,0.35948 z M 113.42524,669.44678 c -3.34149,-1.93139 -5.03319,-5.42778 -5.07463,-10.48816 -0.0285,-3.47592 0.53946,-4.90183 2.88764,-7.25 2.39743,-2.39744 3.7641,-2.92308 7.6,-2.92308 4.01854,0 5.17342,0.4965 8.20393,3.52701 3.25045,3.25045 3.48643,3.88697 3.00957,8.1177 -0.68639,6.08965 -3.9894,9.43192 -9.86888,9.98617 -2.6173,0.24674 -5.32549,-0.14186 -6.75763,-0.96964 z m 87.24302,-0.58758 c -6.21569,-3.79011 -6.55961,-13.40625 -0.64584,-18.05802 3.77445,-2.96899 10.30434,-2.71822 14.18202,0.54464 10.44712,8.79067 -1.81756,24.65896 -13.53618,17.51338 z m 82.03503,0.94627 c -5.58221,-2.25546 -8.00258,-9.99722 -4.96312,-15.8749 3.03474,-5.86853 12.7788,-7.09507 17.65192,-2.22195 2.39744,2.39743 2.92308,3.7641 2.92308,7.6 0,3.98552 -0.50263,5.17955 -3.4,8.07692 -3.52914,3.52914 -7.51283,4.31856 -12.21188,2.41993 z m 212.96497,-0.94627 c -3.65025,-2.2258 -5.82908,-7.63 -4.85827,-12.05009 1.55414,-7.07594 11.9702,-10.59202 17.79793,-6.00793 8.21399,6.46113 3.61823,19.97688 -6.79275,19.97688 -1.65,0 -4.41611,-0.86349 -6.14691,-1.91886 z m 88.06722,0.0409 c -9.44351,-5.75867 -5.20844,-20.11456 5.93391,-20.11456 5.11122,0 8.38509,2.13184 10.2955,6.7041 4.16819,9.97588 -6.88463,19.10887 -16.22941,13.41043 z m 80.82107,0.56024 c -4.18836,-2.32608 -5.67134,-5.7901 -5.35207,-12.50169 0.0609,-1.27981 1.42607,-3.64231 3.03377,-5.25 5.96396,-5.96397 17.11156,-2.58583 18.65733,5.65387 1.71417,9.1373 -8.30802,16.55797 -16.33903,12.09782 z M 442.36866,653.30936 c -295.68632,175.89152 -147.84316,87.94576 0,0 z m -359.908273,135.14 c -1.17355,-2.1928 2.03333,-15.1866 10.23203,-41.45857 10.371933,-33.23595 10.746293,-37.35569 4.4962,-49.47955 -1.94351,-3.77 -5.64857,-10.96703 -8.23345,-15.99339 -4.75464,-9.2455 -8.53727,-22.61028 -7.30687,-25.81663 0.39936,-1.04073 1.49241,-1.56242 2.85926,-1.36467 1.77488,0.25679 2.71583,1.80426 4.75509,7.82014 2.83877,8.3745 5.26983,12.23761 10.70324,17.00822 5.310753,4.66289 9.597073,6.13772 20.337863,6.9978 13.87645,1.11116 17.71439,2.41538 23.09834,7.84937 3.62626,3.65995 5.41449,6.76462 8.43506,14.64461 4.70383,12.27124 9.08054,19.721 11.33138,19.28753 2.37282,-0.45697 7.39746,-9.42165 11.21545,-20.01002 5.74212,-15.92454 11.6352,-20.30757 29.19874,-21.71686 10.75762,-0.86318 15.95637,-2.4773 21.43305,-6.65456 4.6047,-3.51218 9.88421,-11.68277 12.36402,-19.13459 1.7586,-5.28461 2.45076,-6.2715 4.3985,-6.2715 3.19719,0 3.60168,1.801 2.05614,9.15487 -1.82113,8.66511 -3.79942,13.41713 -11.21274,26.93392 -8.34972,15.22414 -9.38953,20.02459 -6.44047,29.73372 1.2107,3.98595 6.46377,15.66836 11.6735,25.96091 5.20973,10.29254 9.25614,19.27686 8.99202,19.96515 -0.26412,0.68829 -1.59279,1.25143 -2.95259,1.25143 -1.3598,0 -2.76748,0.47751 -3.12819,1.06114 -0.3607,0.58363 0.34723,5.12057 1.57318,10.08209 2.07191,8.38522 2.11265,9.1373 0.57804,10.67191 -2.26196,2.26196 -4.43754,0.76246 -7.66672,-5.28425 -3.84873,-7.20683 -8.07931,-11.73536 -14.05499,-15.04483 -4.86468,-2.69417 -6.27147,-2.98606 -14.39172,-2.98606 -8.1208,0 -9.52686,0.29179 -14.39325,2.9869 -5.72614,3.17125 -9.98136,7.7799 -14.08873,15.25891 -3.22346,5.86952 -5.3938,7.30698 -7.64039,5.06039 -1.54653,-1.54653 -1.51366,-2.24295 0.48124,-10.19686 2.80555,-11.18609 2.77639,-11.60934 -0.79985,-11.60934 -1.61754,0 -3.22759,-0.46374 -3.57789,-1.03054 -0.3503,-0.56679 3.6523,-9.55784 8.89466,-19.98011 11.92993,-23.71774 15.47012,-34.52715 12.72644,-38.85817 -0.63385,-1.00057 -1.86367,0.34459 -4.57126,5 -4.93935,8.49265 -13.9869,20.28231 -17.16095,22.36203 -1.50461,0.98586 -3.50501,1.43874 -4.85659,1.09952 -3.28532,-0.82457 -11.41419,-10.09694 -18.10636,-20.65341 -4.82321,-7.6083 -5.91032,-8.79145 -6.73079,-7.32535 -1.66238,2.97052 0.83149,14.4652 8.67573,39.98786 4.07416,13.25601 8.22163,27.55496 9.21662,31.77544 1.7058,7.23563 1.71159,7.77108 0.10145,9.38122 -2.89456,2.89456 -4.89127,0.32212 -9.2606,-11.93077 -6.35702,-17.82696 -11.95543,-26.47308 -19.75207,-30.50488 -4.55478,-2.35537 -12.6175,-1.3534 -17.19316,2.13663 -4.95504,3.7794 -10.665463,12.8624 -14.011133,22.28609 -6.05209,17.04688 -6.86415,18.74126 -9.13722,19.06512 -1.3231,0.18852 -2.56542,-0.40842 -3.15926,-1.51801 z m 168.785723,0.13788 c -1.67084,-2.01325 0.94578,-13.27418 9.21146,-39.64255 12.2568,-39.10048 12.25873,-39.56306 0.25329,-60.83487 -7.59827,-13.463 -12.67443,-29.31225 -10.50558,-32.80152 1.0394,-1.67221 4.11724,-1.16634 5.16179,0.84839 0.42772,0.825 1.73307,4.21824 2.90077,7.54054 4.56694,12.99367 14.36554,21.2346 26.39657,22.20034 15.86394,1.2734 26.92692,-7.1336 33.14337,-25.18636 1.78932,-5.19624 2.43296,-6.05452 4.54042,-6.05452 2.28297,0 2.44436,0.33164 2.29633,4.71864 -0.23512,6.96833 -2.71306,13.56126 -11.47107,30.52046 -10.55252,20.43416 -10.55795,21.24998 -0.3576,53.7609 11.20518,35.71358 13.16837,44.91791 9.85197,46.19053 -2.97638,1.14215 -4.56269,-1.13148 -8.40219,-12.04272 -8.43962,-23.98399 -15.61134,-32.64781 -27.02516,-32.64781 -10.77733,0 -18.51387,9.37653 -26.37801,31.96961 -1.99077,5.71934 -4.11099,10.9909 -4.71159,11.71459 -1.45828,1.75712 -3.3157,1.66106 -4.90477,-0.25365 z m 214.06576,0.0792 c -0.99383,-1.19748 -0.80243,-3.24806 0.97436,-10.43886 1.21612,-4.92175 1.91601,-9.42615 1.55531,-10.00978 -0.36071,-0.5836 -1.76839,-1.06111 -3.12819,-1.06111 -1.3598,0 -2.68847,-0.56314 -2.95259,-1.25143 -0.26412,-0.68829 3.76892,-9.6462 8.96232,-19.90648 8.96256,-17.70679 13.58067,-29.35892 13.58067,-34.26592 0,-4.37316 -3.03058,-12.23459 -8.12485,-21.07617 -6.33951,-11.00281 -9.65296,-18.93878 -11.40636,-27.31914 -1.4767,-7.05787 -1.12619,-9.18086 1.51575,-9.18086 2.2668,0 3.44745,1.52859 5.02046,6.5 2.14597,6.78217 5.02682,11.81466 9.34958,16.33252 5.49712,5.74523 10.77252,8.32772 18.23521,8.92675 5.29597,0.42511 7.86549,-0.0734 18.52941,-3.59485 23.57741,-7.78575 32.66754,-7.88523 54.96183,-0.60147 7.88042,2.5746 15.46606,4.43705 18.07187,4.43705 13.11552,0 25.75467,-10.83153 29.75556,-25.5 1.47251,-5.39868 2.4858,-6.76229 4.71137,-6.3402 5.17099,0.9807 1.51368,15.02649 -9.25014,35.52494 -11.49815,21.89691 -11.40718,22.93288 4.88024,55.57261 5.42246,10.86654 9.58295,20.20404 9.24553,20.75 -0.33742,0.54596 -1.93694,0.99265 -3.55448,0.99265 -3.60787,0 -3.66695,0.80838 -0.87803,12.01396 1.88109,7.55806 1.92351,8.42815 0.48123,9.87043 -2.23281,2.23281 -4.40318,0.63127 -7.9307,-5.85214 -3.51303,-6.45679 -9.07765,-12.17593 -14.82199,-15.23359 -3.55019,-1.88973 -5.84612,-2.28556 -13.29149,-2.29149 -8.10071,-0.006 -9.53146,0.28724 -14.31885,2.93923 -6.15683,3.41061 -9.98786,7.4695 -14.35665,15.21057 -3.50684,6.21379 -5.24393,7.35217 -7.60938,4.98673 -1.50639,-1.50639 -1.46197,-2.3179 0.58658,-10.71762 1.219,-4.9983 1.96075,-9.50143 1.64832,-10.00695 -0.31243,-0.50552 -1.68062,-0.91913 -3.04042,-0.91913 -1.3598,0 -2.69643,-0.5839 -2.97029,-1.29755 -0.27385,-0.71365 3.54047,-9.23071 8.47626,-18.9268 4.9358,-9.69609 10.17792,-21.49008 11.64916,-26.20886 2.45829,-7.8846 2.59053,-9.14857 1.63252,-15.60328 -1.40881,-9.49196 -4.78774,-15.09123 -10.93312,-18.11746 -4.05386,-1.99629 -6.25499,-2.34158 -14.76413,-2.31604 -8.23141,0.0247 -10.70744,0.40543 -14,2.15268 -7.70597,4.08931 -11.1743,9.97695 -12.15986,20.64192 -0.46658,5.04902 -0.0879,7.60991 2.07607,14.04023 2.45004,7.2803 14.15318,31.84395 18.77683,39.41054 2.51441,4.11483 1.78173,6.22462 -2.16166,6.22462 -3.67829,0 -3.70725,0.37761 -0.89025,11.60934 1.9949,7.95391 2.02777,8.65033 0.48124,10.19686 -2.24659,2.24659 -4.41693,0.80913 -7.64039,-5.06039 -4.10737,-7.47901 -8.36259,-12.08766 -14.08873,-15.25891 -4.86639,-2.69511 -6.27245,-2.9869 -14.39325,-2.9869 -8.10824,0 -9.53097,0.2941 -14.3588,2.96815 -5.79632,3.21047 -10.70214,8.31361 -13.71935,14.27114 -3.65054,7.20806 -5.92566,8.76843 -8.41373,5.77049 z m 168.06835,-0.36689 c -1.1638,-2.17459 2.02752,-15.14335 9.93607,-40.37782 11.81758,-37.70734 11.81882,-38.4054 0.10544,-59.47197 -6.92821,-12.4604 -10.28852,-21.691 -10.48186,-28.7931 -0.12604,-4.62969 0.0391,-5 2.23021,-5 2.02369,0 2.73024,1.01355 4.87972,7 6.18342,17.22127 16.96367,25.36393 32.13772,24.27463 14.01343,-1.00598 22.90929,-9.26835 28.55832,-26.52463 1.41566,-4.32448 2.12634,-5.25 4.03129,-5.25 3.21454,0 3.56014,1.67503 1.94014,9.40341 -1.71333,8.17356 -4.04313,13.70282 -11.58314,27.48993 -3.18867,5.83058 -6.31962,12.93376 -6.95767,15.78484 -1.54405,6.89957 -0.50382,11.9072 8.61429,41.46861 4.01157,13.00573 8.10307,27.07968 9.09223,31.27544 1.6958,7.19324 1.70099,7.72612 0.0908,9.33626 -2.93568,2.93568 -4.88115,0.29196 -10.20489,-13.86747 -5.48411,-14.58598 -7.01183,-17.44865 -12.3936,-23.22344 -4.76373,-5.11165 -8.00079,-6.66755 -13.87184,-6.66755 -3.83601,0 -5.78159,0.63889 -8.96249,2.94313 -7.04932,5.10649 -11.24496,12.36911 -17.67653,30.5979 -1.89609,5.37402 -4.03541,10.14386 -4.75406,10.59964 -2.09268,1.32724 -3.66312,0.99597 -4.73015,-0.99778 z M 113.42524,671.44678 c -11.989,-5.9062 -7.47758,-24.29009 5.96082,-24.29009 7.82644,0 14.41374,8.93689 11.99325,16.27105 -1.31196,3.97529 -4.38012,7.14278 -8.39066,8.66234 -3.79771,1.43891 -5.5801,1.31902 -9.56341,-0.6433 z m 88.1482,0.22732 c -4.26658,-1.8548 -7.26125,-6.91687 -7.26595,-12.2821 -0.003,-3.46441 0.63861,-4.96561 3.41942,-8 3.17969,-3.46964 3.82527,-3.73531 9.07684,-3.73531 5.25157,0 5.89715,0.26567 9.07684,3.73531 2.91958,3.18582 3.42316,4.45319 3.42316,8.61515 0,5.72741 -2.53883,9.64108 -7.63578,11.77072 -4.08383,1.70633 -5.9755,1.68689 -10.09453,-0.10377 z m 81.1455,0.0947 c -6.81567,-3.04161 -9.88084,-10.72123 -6.83828,-17.13295 4.42335,-9.32151 17.09375,-9.98743 22.46357,-1.18061 2.36825,3.88405 2.48729,7.787 0.37337,12.24176 -2.81427,5.93062 -10.11028,8.6996 -15.99866,6.0718 z m 214.91772,0.30078 c -5.08974,-1.48993 -8.33291,-6.162 -8.33291,-12.0043 0,-4.22814 0.49207,-5.4749 3.42316,-8.67328 3.17969,-3.46964 3.82527,-3.73531 9.07684,-3.73531 5.25157,0 5.89715,0.26567 9.07684,3.73531 2.78081,3.03439 3.42246,4.53559 3.41942,8 -0.008,9.3845 -7.76168,15.28338 -16.66335,12.67758 z m 88.28639,0.063 c -4.17811,-1.26594 -7.49076,-4.78481 -8.68719,-9.22801 -0.88248,-3.27729 -0.72214,-4.55018 1.02879,-8.16711 5.55602,-11.4772 22.07052,-9.22095 23.74239,3.24374 1.28445,9.57629 -7.03251,16.89391 -16.08399,14.15138 z m 80.92238,0.29467 c -5.57548,-1.41626 -9.55306,-6.62297 -9.52694,-12.4709 0.0201,-4.50149 1.87384,-7.80796 5.89771,-10.51964 6.62696,-4.46591 14.53228,-2.12423 18.16544,5.38089 1.71233,3.53719 1.86947,4.82085 0.99,8.08697 -1.1631,4.31942 -4.13523,7.57608 -8.38299,9.18551 -2.94094,1.11429 -3.90476,1.15978 -7.14322,0.33717 z"
       inkscape:connector-curvature="0" />
    <path
       id="path3814"
       style="fill:#ffffff;fill-opacity:0.25098039"
       d="m 387.82171,848.29636 c -3.83727,-1.67075 -7.10673,-5.73446 -8.41881,-10.46399 -0.55153,-1.98803 -7.76564,-52.6646 -16.03136,-112.6146 -8.26572,-59.95 -15.70446,-110.73454 -16.53053,-112.85454 -2.80633,-7.20204 -13.68491,-21.86774 -29.12001,-39.25746 l -6.3126,-7.112 6.60529,-0.67673 c 3.63291,-0.37221 13.86999,-2.26856 22.74906,-4.21412 22.05964,-4.83364 34.46786,-6.34267 52.34255,-6.36563 17.33868,-0.0223 31.30485,1.57806 56.30122,6.45135 9.625,1.87648 20.30977,3.72101 23.74393,4.09894 l 6.24392,0.68715 -2.74392,3.26378 c -1.50916,1.79508 -6.71715,7.92477 -11.57332,13.62152 -10.71296,12.56736 -20.25676,26.55838 -21.56987,31.62098 -0.73135,2.81968 -22.89247,160.66359 -30.21902,215.23676 -1.401,10.43561 -3.94678,15.36899 -9.25755,17.93989 -4.86257,2.35393 -11.65485,2.62157 -16.20898,0.6387 z M 304.67107,546.17618 c -13.15773,-3.54354 -21.55727,-10.13245 -35.82233,-28.10036 -12.24503,-15.42353 -17.88732,-20.72355 -24.59992,-23.10766 -2.66327,-0.9459 -4.8423,-2.0413 -4.8423,-2.43422 0,-1.32469 6.5071,-5.69059 13.0331,-8.74447 3.56504,-1.66829 9.40352,-3.43423 12.9744,-3.92431 6.74983,-0.92638 17.49533,-0.0473 22.45046,1.83662 4.64034,1.76426 5.10376,-0.23081 1.23185,-5.30329 -6.08383,-7.97025 -7.19628,-12.36096 -7.14001,-28.18072 0.0371,-10.42835 0.62334,-16.8063 2.29794,-25 2.84797,-13.93486 3.04216,-23.18494 0.57444,-27.36246 -0.99938,-1.6918 -1.51392,-3.37913 -1.14344,-3.74961 1.24471,-1.24472 12.15665,1.60658 19.52974,5.10313 9.51501,4.51231 17.7129,12.62272 22.63174,22.39022 2.06892,4.10833 4.17501,7.08189 4.85648,6.85679 0.76459,-0.25255 1.42108,-3.83202 1.80063,-9.81776 0.46132,-7.27524 1.33706,-11.31261 3.84591,-17.73052 2.37932,-6.08656 3.15408,-9.49821 2.89546,-12.75 -0.19421,-2.44189 -0.0124,-4.43979 0.40409,-4.43979 1.81654,0 8.70289,8.18962 11.23056,13.356 4.27707,8.74202 5.27245,7.58407 5.24874,-6.106 -0.0348,-20.11502 5.4822,-33.9956 19.32228,-48.61384 7.01211,-7.40637 22.33989,-19.63616 24.6103,-19.63616 0.51179,0 1.49946,2.1375 2.19483,4.75 1.126,4.23034 3.20554,6.66579 19.00813,22.26142 23.92043,23.60714 30.70828,33.95692 33.60453,51.23858 0.78667,4.69397 2.51885,4.77474 5.94913,0.27741 5.28941,-6.93477 16.26696,-12.61992 27.1576,-14.06461 l 4.96396,-0.65849 1.28452,4.84784 c 0.70649,2.66632 3.68552,9.12285 6.62007,14.34785 12.96848,23.09052 14.9765,29.0069 14.38867,42.39448 -0.48527,11.05197 -3.64409,18.68641 -11.76928,28.44478 -6.37158,7.65228 -5.85345,9.02961 2.48492,6.60558 7.8869,-2.29279 19.29472,-2.09997 27.5052,0.46489 6.21277,1.94081 16.91155,8.38958 17.64239,10.6341 0.18693,0.5741 -1.3542,1.65032 -3.42473,2.3916 -8.17657,2.92729 -14.54177,8.87596 -26.81961,25.06457 -14.65289,19.32017 -29.48478,28 -47.84577,28 -3.91117,0 -14.70149,-1.52097 -24.5399,-3.45907 -44.9526,-8.85534 -63.57331,-8.70742 -108.82525,0.86452 -13.8639,2.93256 -26.56966,3.31515 -34.96953,1.05296 z m 88.12062,8.16719 c -261.86113,220.65997 -130.93056,110.32998 0,0 z m -80.3347,-4.95426 c -17.5822,-2.3324 -30.23779,-11.143 -46.03063,-32.04574 -10.69587,-14.15661 -16.07722,-18.57686 -27.19493,-22.33797 -2.71674,-0.91907 -1.1203,-3.23296 5.06155,-7.33623 11.8632,-7.87435 24.53856,-10.51863 37.52619,-7.82856 4.32003,0.89479 8.02726,1.45424 8.23828,1.24322 0.21102,-0.21103 -0.78043,-1.92646 -2.20322,-3.81207 -8.80581,-11.67026 -9.92604,-25.71786 -4.36438,-54.72915 2.60228,-13.57429 2.58641,-21.68368 -0.0509,-26.00936 -1.10997,-1.82056 -1.75673,-3.73307 -1.43724,-4.25 1.41371,-2.28745 12.98076,0.12179 22.17001,4.61768 7.48448,3.66181 17.03661,12.87419 21.80724,21.0316 l 3.96695,6.78318 1.19055,-8.37648 c 0.6548,-4.60705 2.61775,-12.36631 4.36211,-17.2428 3.06496,-8.56829 3.4231,-12.59742 1.51137,-17.00306 -1.2586,-2.9005 1.9839,-2.10185 6.09003,1.5 2.03776,1.7875 5.31241,5.725 7.27699,8.75 l 3.57198,5.5 0.7553,-10.4659 c 0.41541,-5.75625 1.44958,-13.18125 2.29816,-16.5 3.9688,-15.52186 14.65522,-30.14477 31.23695,-42.74349 10.4981,-7.9764 14.22522,-9.48315 14.22522,-5.75077 0,4.81409 4.97494,11.15474 21.54554,27.46016 11.76144,11.57322 18.79029,19.36604 22.01864,24.41188 4.62161,7.22346 9.35683,18.56591 9.43004,22.58812 0.02,1.1 0.45074,2.65499 0.95714,3.45554 0.74044,1.17051 1.97569,0.45781 6.30806,-3.63957 2.96303,-2.80231 7.25309,-6.04695 9.53345,-7.2103 4.99574,-2.54864 14.42589,-5.10567 18.82933,-5.10567 2.9404,0 3.25561,0.3173 3.85816,3.88376 0.36089,2.13607 4.20752,10.39822 8.54808,18.36033 10.15171,18.62182 13.24445,27.58759 13.19636,38.25591 -0.0534,11.85776 -3.55008,20.55377 -12.6193,31.38387 -2.0191,2.41113 -3.45563,4.59934 -3.19227,4.86269 0.26335,0.26335 2.64061,-10e-4 5.28279,-0.5875 13.01437,-2.88876 22.5345,-2.08863 32.80398,2.75706 7.31497,3.45159 14.75946,8.80551 14.27301,10.26485 -0.19683,0.59048 -2.69814,1.94661 -5.55848,3.01361 -6.7475,2.51704 -14.18672,9.38643 -24.76018,22.86361 -10.30596,13.13621 -18.53602,20.74015 -26.7454,24.71069 -13.58138,6.56875 -22.98693,6.94853 -48.20895,1.94658 -28.83536,-5.71854 -32.74276,-6.1702 -53,-6.12622 -19.75076,0.0429 -27.26955,0.98063 -55,6.85972 -13.65577,2.89514 -20.43448,3.53507 -27.50758,2.59678 z m 75.00623,302.02336 c -3.6713,-1.45626 -8.81658,-6.7856 -9.95341,-10.30948 -0.5451,-1.68965 -7.78278,-52.12209 -16.08373,-112.07209 -8.30096,-59.95 -15.50511,-110.59215 -16.00924,-112.53811 -1.89646,-7.32043 -12.61447,-22.29429 -29.31976,-40.96189 -4.18357,-4.675 -7.49511,-9.175 -7.35898,-10 0.18882,-1.14433 2.3789,-1.65672 9.23632,-2.16094 4.94384,-0.36351 13.9388,-1.84455 19.9888,-3.29118 41.11676,-9.83158 67.51538,-9.62304 119.30105,0.94242 6.76558,1.38034 15.20308,2.5097 18.75,2.5097 5.48744,0 6.44895,0.26223 6.44895,1.75877 0,0.96732 -4.31992,6.70482 -9.59982,12.75 -12.34843,14.13823 -21.81181,26.67659 -24.90029,32.99123 -2.48747,5.08582 -3.00505,8.60435 -30.50095,207.34418 -3.33901,24.13434 -4.74666,28.03342 -11.50178,31.85915 -4.34629,2.4615 -13.75165,3.06061 -18.49716,1.17824 z m -78.5,-300.89816 c -16.54723,-3.29894 -27.70562,-11.681 -44.52675,-33.44803 -9.23421,-11.94932 -15.86915,-17.68635 -22.65021,-19.58493 -4.8898,-1.36906 -5.70761,-2.16342 -4.8875,-4.74737 0.79234,-2.49643 12.39039,-9.9003 19.29037,-12.31443 7.41416,-2.59403 18.37379,-3.46192 25.2081,-1.99622 2.94682,0.63198 5.50526,1.00164 5.68543,0.82146 0.18017,-0.18017 -0.73363,-1.8893 -2.03068,-3.79808 -7.11041,-10.46391 -8.00538,-22.48725 -3.60122,-48.38039 3.41378,-20.07048 3.54697,-27.18233 0.57063,-30.47115 -5.01885,-5.54576 3.22044,-7.82909 14.57491,-4.03909 12.14745,4.05469 22.00073,11.58877 28.7393,21.97482 l 3.56845,5.5 1.0999,-6.02583 c 0.60494,-3.31421 2.62377,-10.33812 4.48628,-15.6087 3.21243,-9.09062 3.31567,-9.79712 2.00971,-13.75419 -0.8775,-2.65886 -1.02931,-4.51869 -0.4187,-5.1293 1.64377,-1.64377 7.59755,2.34596 12.38198,8.29737 l 4.5,5.5976 0.68755,-9.32612 c 1.1665,-15.82272 6.94906,-29.58705 17.64304,-41.99603 8.65789,-10.04636 27.3527,-24.18917 30.41921,-23.01244 0.83288,0.31961 1.79096,2.3111 2.12908,4.42554 0.82245,5.14335 5.78477,11.18844 20.13799,24.5321 20.17463,18.75559 29.23147,32.1873 32.93656,48.84639 l 0.63306,2.84639 4.81472,-4.5036 c 7.64582,-7.15178 18.59727,-11.68918 28.2129,-11.68918 5.04501,0 5.03305,-0.0124 6.35498,6.58743 0.34013,1.69809 3.80444,8.89809 7.69848,16 12.49525,22.78874 15.75514,35.3724 12.4765,48.16112 -1.96474,7.66368 -4.63531,13.09932 -9.89736,20.14493 l -4.02815,5.39348 2.89072,-0.62956 c 15.9574,-3.47528 30.75766,-0.43092 43.54727,8.95752 6.34958,4.66102 6.22414,6.88705 -0.53213,9.4428 -8.23056,3.11345 -12.42781,6.8404 -23.84019,21.16896 -6.04448,7.58901 -13.29648,15.81588 -16.11556,18.28194 -9.77461,8.55059 -24.49183,14.42413 -36.2673,14.47402 -2.25425,0.01 -11.92925,-1.52123 -21.5,-3.40172 -28.44883,-5.58972 -39.10279,-6.91258 -55.90137,-6.94106 -16.77655,-0.0284 -21.11779,0.51158 -51.77037,6.43983 -20.04901,3.8775 -26.95078,4.45455 -34.72963,2.90372 z"
       inkscape:connector-curvature="0" />
  </g>
</svg>
